<?xml version="1.0" standalone="no"?><!DOCTYPE svg PUBLIC "-//W3C//DTD SVG 1.1//EN" "http://www.w3.org/Graphics/SVG/1.1/DTD/svg11.dtd"><svg class="icon" width="200px" height="200.00px" viewBox="0 0 1024 1024" version="1.1" xmlns="http://www.w3.org/2000/svg"><path fill="#333333" d="M625.714745 666.87938c6.092776 6.067176 6.092776 11.980752 0 17.68953-23.628705 23.628705-61.516554 35.430258-113.714745 35.430258s-90.11164-11.801553-113.714745-35.430258c-6.092776-5.708777-6.092776-11.622354 0-17.715129 2.303991-2.303991 5.11998-3.430386 8.575966-3.430387 3.430386 0 6.271975 1.151995 8.575965 3.430387 18.278327 18.687925 50.457398 28.006288 96.562814 28.006288 45.721417 0 77.900488-9.343963 96.562814-28.006288 2.303991-2.303991 5.145579-3.430386 8.575965-3.430387s6.297575 1.151995 8.575966 3.430387z m-175.436098-103.449186c0 14.079944-4.94078 26.111896-14.847941 35.993456-9.90716 9.90716-21.913512 14.847941-35.993456 14.847941-14.079944 0-26.188695-4.94078-36.300655-14.847941a48.563006 48.563006 0 0 1-15.129539-35.993456c0-14.489542 5.04318-26.675093 15.129539-36.582253 10.11196-9.90716 22.195111-14.847941 36.300655-14.847941 14.079944 0 26.086296 5.04318 35.993456 15.155139 9.90716 10.08636 14.847941 22.169511 14.847941 36.275055z m225.714297 0c0 14.079944-5.04318 26.111896-15.129539 35.993456-10.11196 9.90716-22.195111 14.847941-36.300655 14.847941-14.079944 0-26.086296-4.94078-35.993456-14.847941a49.023804 49.023804 0 0 1-14.847941-35.993456c0-14.079944 4.94078-26.188695 14.847941-36.275055A48.563006 48.563006 0 0 1 624.56275 512c14.079944 0 26.188695 4.94078 36.300655 14.847941 10.08636 9.90716 15.129539 22.092712 15.129539 36.582253z m143.436226-68.582125c0-18.662325-6.655973-34.662261-19.99352-47.999808a66.124536 66.124536 0 0 0-48.588605-19.967921 67.071732 67.071732 0 0 0-49.151804 20.556718c-49.510202-34.303863-108.748365-52.58219-177.688889-54.86058l35.993456-161.714553 114.277943 25.702297c0 14.079944 4.96638 26.111896 14.847941 36.019056 9.93276 9.88156 21.913512 14.847941 36.019055 14.84794 14.079944 0 26.188695-5.04318 36.275055-15.155139 10.11196-10.08636 15.155139-22.169511 15.15514-36.275055 0-14.079944-5.04318-26.188695-15.15514-36.275055a49.510202 49.510202 0 0 0-36.275055-15.155139c-20.582318 0-35.814257 9.523162-45.721417 28.569485l-126.284295-28.006288c-7.244771-1.894392-12.006352 1.151995-14.284742 9.164764l-39.423843 178.277687c-68.582126 2.662389-127.43629 21.145515-176.562493 55.423778-13.337547-14.079944-29.92628-21.145515-49.715002-21.145515-19.046324 0-35.251059 6.655973-48.588605 19.99352a65.458938 65.458938 0 0 0-19.96792 47.999808c0 13.337547 3.507186 25.523098 10.547157 36.582253a68.095728 68.095728 0 0 0 28.287887 25.1391c-2.303991 10.291159-3.430386 20.966316-3.430386 31.999872 0 54.092584 26.675093 100.377198 79.99968 138.853844 53.324587 38.476646 117.50353 57.727769 192.56243 57.727769 75.442898 0 139.826641-19.251123 193.151227-57.727769s79.99968-84.735661 79.99968-138.853844c0-12.185551-1.331195-23.039908-3.993584-32.56307a67.660529 67.660529 0 0 0 27.41749-24.857501 66.559734 66.559734 0 0 0 10.291159-36.300654zM1023.997952 512c0 69.324523-13.516746 135.628257-40.575838 198.860005-27.033492 63.231747-63.410946 117.708329-109.132363 163.429746-45.721417 45.695817-100.197999 82.098872-163.429746 109.132363A500.503598 500.503598 0 0 1 512 1023.997952c-69.324523 0-135.628257-13.516746-198.860005-40.575838-63.231747-27.033492-117.708329-63.410946-163.429746-109.132363-45.695817-45.721417-82.098872-100.197999-109.132363-163.429746A500.503598 500.503598 0 0 1 0.002048 512c0-69.324523 13.516746-135.628257 40.575838-198.860005 27.033492-63.231747 63.436546-117.708329 109.132363-163.429746 45.721417-45.695817 100.197999-82.098872 163.429746-109.132363A500.503598 500.503598 0 0 1 512 0.002048c69.324523 0 135.628257 13.516746 198.860005 40.575838 63.231747 27.033492 117.708329 63.436546 163.429746 109.132363 45.695817 45.721417 82.098872 100.197999 109.132363 163.429746A500.503598 500.503598 0 0 1 1023.997952 512z" /></svg>