<?xml version="1.0" standalone="no"?><!DOCTYPE svg PUBLIC "-//W3C//DTD SVG 1.1//EN" "http://www.w3.org/Graphics/SVG/1.1/DTD/svg11.dtd"><svg class="icon" width="200px" height="200.00px" viewBox="0 0 1024 1024" version="1.1" xmlns="http://www.w3.org/2000/svg"><path fill="#333333" d="M512 1024C229.2224 1024 0 794.7776 0 512 0 229.248 229.2224 0 512 0s512 229.248 512 512c0 282.7776-229.2224 512-512 512z m259.9424-644.0448a212.48 212.48 0 0 1-60.6464 16.4864 104.9856 104.9856 0 0 0 46.4128-57.9328 211.968 211.968 0 0 1-67.072 25.3952 105.728 105.728 0 0 0-77.056-33.0752c-58.2656 0-105.5232 46.8992-105.5232 104.704 0 8.2432 0.896 16.2048 2.7136 23.8592a300.5184 300.5184 0 0 1-217.6256-109.4144 103.936 103.936 0 0 0-14.2848 52.6848c0 36.3008 18.6368 68.352 46.976 87.168a106.2912 106.2912 0 0 1-47.872-13.056v1.28c0 50.7392 36.4032 93.0816 84.736 102.656-8.8576 2.4832-18.176 3.712-27.8272 3.712-6.656 0-13.312-0.6144-19.8656-1.8688a105.472 105.472 0 0 0 98.6112 72.704 212.864 212.864 0 0 1-131.1232 44.8256c-8.5248 0-16.9472-0.4608-25.1904-1.4336a300.8768 300.8768 0 0 0 161.8432 47.0272c194.2272 0 300.3904-159.5392 300.3904-297.984 0-4.5312-0.0768-9.0624-0.256-13.5424a213.0944 213.0944 0 0 0 52.6592-54.1952z" /></svg>